<svg xmlns="http://www.w3.org/2000/svg" width="463.491" height="208.425" viewBox="0 0 122.632 55.146"><path fill="#fff" d="M0 0h122.632v55.146H0z"/><path d="M92.45 13.906c-1.75 0-2.764.952-2.764 2.7 0 1.752 1.013 2.766 2.764 2.766 1.78 0 2.794-1.014 2.794-2.765 0-1.749-1.013-2.701-2.794-2.701zm-45.98 1.077l-.314 2.485 1.616.583c.248.08.372.294.372.644v16.177c0 .23-.029.384-.086.464-.047.07-.176.12-.386.15l-1.46.21v2.423h8.271v-2.424l-1.445-.21c-.22-.03-.353-.074-.4-.134-.048-.07-.073-.23-.073-.479V14.983zm54.59 1.845c-.338 3.347-1.412 4.698-4.115 5.005v2.733h2.149c.246 0 .246.123.246.307v8.044c0 3.47 1.382 4.942 5.035 4.942 1.751 0 3.685-.583 5.006-1.227l-.83-2.703c-.737.277-1.626.491-2.487.491-1.657 0-2.088-.705-2.088-2.517v-7.337h4.575v-3.07h-4.329c-.246 0-.246-.093-.246-.307v-4.36zM78.235 21.82c-4.697 0-7.03 2.424-7.03 5.955 0 2.272 1.136 3.869 2.64 4.606a37.696 37.696 0 0 0-1.903 1.841c-.554.584-.89 1.198-.89 1.874 0 .83.336 1.596 1.35 2.025-1.075 1.015-1.689 1.75-1.689 3.132 0 2.425 2.118 3.837 7.675 3.837 5.343 0 8.443-1.994 8.443-5.526 0-4.082-3.13-4.235-8.443-4.574l-3.008-.184 1.013-1.626c.553.153 1.443.275 2.427.275 3.867 0 6.538-1.995 6.538-5.403 0-1.413-.584-2.395-1.136-3.101l2.826-.215v-2.61H81.06c-.706-.185-1.505-.306-2.825-.306zm10.59.008l-.338 2.486 1.658.584c.308.091.4.307.4.644v9.026c0 .462-.061.553-.491.615l-1.567.215v2.424h8.751v-2.424l-1.566-.215c-.461-.062-.491-.123-.491-.615v-12.74zm-25.901.024c-1.02 0-1.965.17-2.833.509a6.746 6.746 0 0 0-2.304 1.496c-.667.649-1.192 1.502-1.574 2.56-.372 1.057-.558 2.259-.558 3.606 0 1.237.134 2.354.4 3.352a8.078 8.078 0 0 0 1.26 2.664c.582.778 1.374 1.382 2.375 1.81 1.002.43 2.19.644 3.563.644 1.918 0 3.92-.523 6.01-1.57l-1.088-3.039c-1.822.698-3.276 1.048-4.364 1.048-1.144 0-1.989-.314-2.532-.943-.544-.629-.854-1.522-.93-2.679h8.971c.038-.818.057-1.502.057-2.05 0-2.544-.567-4.415-1.702-5.612-1.136-1.197-2.72-1.796-4.751-1.796zm15.588 3.006c1.75 0 2.793.952 2.793 2.763 0 1.598-1.166 2.61-2.884 2.61-2.027 0-2.856-1.044-2.856-2.548 0-1.996 1.258-2.825 2.947-2.825zm-15.674.302c.668 0 1.198.244 1.589.733.4.479.605 1.317.615 2.514h-4.665c.144-2.165.964-3.247 2.461-3.247zm12.297 13.792l4.481.305c1.475.093 2.642.154 2.642 1.138 0 1.656-2.426 1.78-4.207 1.78-2.15 0-3.715-.369-3.715-1.596 0-.615.399-1.137.799-1.627z" fill="#362701"/><g transform="matrix(.35278 0 0 -.35278 -135.358 154.57)"><path d="M505.041 356.14l-39.794-39.791a5.869 5.869 0 0 0-8.3 0l-8.262 8.263-4.06 4.06-27.286 27.284a5.871 5.871 0 0 0 0 8.302l39.794 39.791a5.87 5.87 0 0 0 8.3 0l39.608-39.606a5.873 5.873 0 0 0 0-8.303" fill="#f03c2e"/><path d="M451.025 320.987l8.455 8.455a4.623 4.623 0 0 1 5.856 5.896l6.704 6.703a4.632 4.632 0 0 1 4.788 7.652 4.633 4.633 0 0 1-7.564-5.04l-6.251-6.251v16.45a4.635 4.635 0 1 1-3.81-.135v-16.603a4.633 4.633 0 0 1-2.515-6.077l-8.357-8.357" fill="#fff"/><path d="M437.437 357.386l9.525-9.557" fill="none" stroke="#fff" stroke-width="3.7820070000000006"/><circle transform="scale(1 -1)" r="4.624" cy="-346.465" cx="448.465" fill="#fff"/><circle cx="485.761" cy="-358.929" r="4.624" transform="scale(1 -1)" fill="#fff"/><circle cx="473.103" cy="-371.779" r="4.624" transform="scale(1 -1)" fill="#fff"/><circle cx="460.929" cy="-384.34" r="4.624" transform="scale(1 -1)" fill="#fff"/><circle transform="scale(1 -1)" r="4.624" cy="-372.166" cx="448.078" fill="#fff"/><circle transform="scale(1 -1)" r="4.624" cy="-371.876" cx="448.368" fill="#fff"/><circle cx="435.711" cy="-359.412" r="4.624" transform="scale(1 -1)" fill="#fff"/><path d="M473.363 396.627l-9.557-9.524M459.836 383.294l-9.557-9.525M485.247 358.269l-9.557-9.525M471.72 370.153l-9.557-9.525M447.906 371.243l-9.557-9.525M461.69 383.087l9.524-9.557M436.225 383.59l9.525-9.556M462.772 357.11l9.525-9.557M462.772 331.409l9.525-9.557M485.517 387.098l-.023-25.86" fill="none" stroke="#fff" stroke-width="3.7820070000000006"/></g></svg>